<svg id="Livello_1" data-name="Livello 1" xmlns="http://www.w3.org/2000/svg" viewBox="0 0 530.27 257.98">
  <defs>
    <style>
      .cls-1 {
        fill: #003882;
      }

      .cls-2 {
        fill: #fff;
      }

      .cls-3 {
        fill: #e2001a;
      }
    </style>
  </defs>
  <title>CEA_Zanichelli</title>
  <rect class="cls-1" y="137.09" width="530.27" height="120.89"/>
  <g>
    <path class="cls-2" d="M363.49,330.79c0,7.1.91,11.57,5.64,11.57,4.43,0,5-5.29,5-11.9v-4h19.68V329c0,19.5-8.24,31.24-24.72,31.24-17.85,0-27-12.73-27-36.37v-3.63c0-23.64,9.16-36.37,27-36.37,16.48,0,24.72,11.74,24.72,31.24v2.48H374.17v-4c0-6.61-.61-11.9-5-11.9-4.73,0-5.64,4.46-5.64,11.57Z" transform="translate(-162.1 -124.6)"/>
    <path class="cls-2" d="M426.2,301.53c-4.58,0-5.65,4.3-5.65,12.73h11c0-8.43-.92-12.73-5.34-12.73m-26.86,18.68c0-21,7.48-36.37,26.86-36.37,19.22,0,25.93,15.21,25.93,36.21v7.59H420.55V331c0,7.11,1.07,11.57,5.95,11.57,4,0,5.49-3,5.49-8.43v-1.65h19.69v1.16c0,15.7-9,26.61-24.87,26.61-18.61,0-27.47-12.9-27.47-36.36Z" transform="translate(-162.1 -124.6)"/>
    <path class="cls-2" d="M486.71,327.15l-4,2.81c-3.51,2.31-5.95,4.13-5.95,8.26,0,3.14,1.68,5,4.42,5,3.82,0,5.5-3.8,5.5-8.93Zm20.75,13.06c0,2.15.45,3.14,2.29,3.14a8.7,8.7,0,0,0,2.59-.5v13.72A17.7,17.7,0,0,1,501.5,360c-6.25,0-11.14-3-13.27-9.26-2.29,5.62-7.93,9.26-14.8,9.26-11.29,0-16.93-7.77-16.93-18,0-11.91,7.63-17.36,18.92-24l11.29-6.61V309c0-4.3-.61-7.28-4.13-7.28s-4.26,3.31-4.26,7.28v3.47H458.63v-4c0-14.54,7.63-24.63,24.57-24.63,16.33,0,24.26,8.93,24.26,26.45Z" transform="translate(-162.1 -124.6)"/>
  </g>
  <polygon class="cls-3" points="0 0 530.27 0 530.27 137.26 0 137.26 0 0 0 0"/>
  <path class="cls-2" d="M644.64,152.76v81.13h19.57V152.76Zm-44.27,81.13H640.2V219.52H620.05V152.76H600.37v81.13Zm-45.62,0h39.83V219.52H574.43V152.76H554.75v81.13Zm-47.06-81.13v81.13h41.78V219.52H527.26V200h21V185.5h-21V167.12h22.21V152.76Zm-59.46,81.13H467.8V200h13.62v33.91H501V152.76H481.42V185.5H467.8V152.76H448.23v81.13ZM363.3,152.76v81.13h19.57V152.76Zm-86.21,49H266.21l5.5-36.08,5.38,36.08Zm-35,32.18h19.11l2.86-18.5h15l2.75,18.5h19.11l-16.36-81.13h-26.1l-16.36,81.13Zm98.23-28.5-16.93-52.63H304v81.13h16.48V181l16.82,52.87H357V152.76H340.3v52.63Zm47.94-11.73c0-5.37,0-10.18.44-15.12a42.68,42.68,0,0,1,3.11-13.64c3.66-8.18,11-13.42,25.14-13.42,17.82,0,25,10.1,24.35,27.84l0,.93H422.86v-1c0-10.92-2-13.79-5.93-13.79-8.29,0-9.72,7-9.72,28.17s1.43,28.16,9.72,28.16c3.28,0,4.89-2,5.75-5.12a26.24,26.24,0,0,0,.77-5.15c.12-1.83.14-3.64.2-5.22l0-.94h18.49v1c0,22-8.94,29.48-25.24,29.48-14.16,0-21.49-5.3-25.14-13.5a42.93,42.93,0,0,1-3.11-13.65c-.44-4.93-.44-9.72-.44-15ZM193.5,167.12H218L190,218v15.86h49V219.52H210.21l28-50.68V152.76H193.5v14.36Z" transform="translate(-162.1 -124.6)"/>
</svg>
